<mxfile host="app.diagrams.net" modified="2020-10-22T01:38:51.774Z" agent="5.0 (Windows NT 10.0; Win64; x64) AppleWebKit/537.36 (KHTML, like Gecko) Chrome/86.0.4240.75 Safari/537.36" etag="JDn1Jdyr1CyTJgAGFu_O" version="13.8.1" type="github">
  <diagram name="Page-1" id="6133507b-19e7-1e82-6fc7-422aa6c4b21f">
    <mxGraphModel dx="816" dy="604" grid="1" gridSize="10" guides="1" tooltips="1" connect="1" arrows="1" fold="1" page="1" pageScale="1" pageWidth="1100" pageHeight="850" background="#ffffff" math="0" shadow="0">
      <root>
        <mxCell id="0" />
        <mxCell id="1" parent="0" />
        <mxCell id="78961159f06e98e8-43" value="GlossaryDetail" style="swimlane;html=1;fontStyle=1;align=center;verticalAlign=top;childLayout=stackLayout;horizontal=1;startSize=26;horizontalStack=0;resizeParent=1;resizeLast=0;collapsible=1;marginBottom=0;swimlaneFillColor=#ffffff;rounded=0;shadow=0;comic=0;labelBackgroundColor=none;strokeWidth=1;fillColor=none;fontFamily=Verdana;fontSize=12" parent="1" vertex="1">
          <mxGeometry x="665" y="136" width="160" height="132" as="geometry" />
        </mxCell>
        <mxCell id="78961159f06e98e8-44" value="詳細" style="text;html=1;strokeColor=none;fillColor=none;align=left;verticalAlign=top;spacingLeft=4;spacingRight=4;whiteSpace=wrap;overflow=hidden;rotatable=0;points=[[0,0.5],[1,0.5]];portConstraint=eastwest;" parent="78961159f06e98e8-43" vertex="1">
          <mxGeometry y="26" width="160" height="26" as="geometry" />
        </mxCell>
        <mxCell id="78961159f06e98e8-51" value="" style="line;html=1;strokeWidth=1;fillColor=none;align=left;verticalAlign=middle;spacingTop=-1;spacingLeft=3;spacingRight=3;rotatable=0;labelPosition=right;points=[];portConstraint=eastwest;" parent="78961159f06e98e8-43" vertex="1">
          <mxGeometry y="52" width="160" height="8" as="geometry" />
        </mxCell>
        <mxCell id="78961159f06e98e8-52" value="更新" style="text;html=1;strokeColor=none;fillColor=none;align=left;verticalAlign=top;spacingLeft=4;spacingRight=4;whiteSpace=wrap;overflow=hidden;rotatable=0;points=[[0,0.5],[1,0.5]];portConstraint=eastwest;" parent="78961159f06e98e8-43" vertex="1">
          <mxGeometry y="60" width="160" height="26" as="geometry" />
        </mxCell>
        <mxCell id="b94bc138ca980ef-2" value="削除" style="text;html=1;strokeColor=none;fillColor=none;align=left;verticalAlign=top;spacingLeft=4;spacingRight=4;whiteSpace=wrap;overflow=hidden;rotatable=0;points=[[0,0.5],[1,0.5]];portConstraint=eastwest;" parent="78961159f06e98e8-43" vertex="1">
          <mxGeometry y="86" width="160" height="26" as="geometry" />
        </mxCell>
        <mxCell id="gEi69n2rBhNy_mjRzv1S-38" value="IDを基に詳細をリクエスト" style="text;html=1;align=center;verticalAlign=middle;resizable=0;points=[];autosize=1;" vertex="1" parent="78961159f06e98e8-43">
          <mxGeometry y="112" width="160" height="20" as="geometry" />
        </mxCell>
        <mxCell id="gEi69n2rBhNy_mjRzv1S-40" style="edgeStyle=orthogonalEdgeStyle;rounded=0;orthogonalLoop=1;jettySize=auto;html=1;exitX=1;exitY=0.75;exitDx=0;exitDy=0;entryX=0.031;entryY=0.25;entryDx=0;entryDy=0;entryPerimeter=0;" edge="1" parent="1" source="b94bc138ca980ef-1" target="78961159f06e98e8-51">
          <mxGeometry relative="1" as="geometry" />
        </mxCell>
        <mxCell id="b94bc138ca980ef-1" value="&lt;p style=&quot;margin: 0px ; margin-top: 4px ; text-align: center&quot;&gt;&lt;i&gt;&amp;lt;&amp;lt;Vuex&amp;gt;&amp;gt;&lt;/i&gt;&lt;br&gt;&lt;br&gt;&lt;/p&gt;&lt;hr size=&quot;1&quot;&gt;&lt;p style=&quot;margin: 0px ; margin-left: 4px&quot;&gt;DB -&amp;gt; 一覧取得&lt;/p&gt;&lt;hr size=&quot;1&quot;&gt;&lt;p style=&quot;margin: 0px ; margin-left: 4px&quot;&gt;&lt;br&gt;&lt;/p&gt;" style="verticalAlign=top;align=left;overflow=fill;fontSize=12;fontFamily=Helvetica;html=1;rounded=0;shadow=0;comic=0;labelBackgroundColor=none;strokeWidth=1" parent="1" vertex="1">
          <mxGeometry x="345" y="210" width="190" height="140" as="geometry" />
        </mxCell>
        <mxCell id="gEi69n2rBhNy_mjRzv1S-17" style="edgeStyle=orthogonalEdgeStyle;rounded=0;orthogonalLoop=1;jettySize=auto;html=1;entryX=0;entryY=0.5;entryDx=0;entryDy=0;" edge="1" parent="1" source="b94bc138ca980ef-1" target="gEi69n2rBhNy_mjRzv1S-13">
          <mxGeometry relative="1" as="geometry">
            <Array as="points">
              <mxPoint x="250" y="280" />
              <mxPoint x="250" y="100" />
            </Array>
          </mxGeometry>
        </mxCell>
        <mxCell id="gEi69n2rBhNy_mjRzv1S-30" style="edgeStyle=orthogonalEdgeStyle;rounded=0;orthogonalLoop=1;jettySize=auto;html=1;exitX=0.75;exitY=0;exitDx=0;exitDy=0;entryX=0.15;entryY=0.008;entryDx=0;entryDy=0;entryPerimeter=0;" edge="1" parent="1" source="78961159f06e98e8-17" target="gEi69n2rBhNy_mjRzv1S-12">
          <mxGeometry relative="1" as="geometry" />
        </mxCell>
        <mxCell id="78961159f06e98e8-17" value="GlossaryList" style="swimlane;html=1;fontStyle=1;align=center;verticalAlign=top;childLayout=stackLayout;horizontal=1;startSize=26;horizontalStack=0;resizeParent=1;resizeLast=0;collapsible=1;marginBottom=0;swimlaneFillColor=#ffffff;rounded=0;shadow=0;comic=0;labelBackgroundColor=none;strokeWidth=1;fillColor=none;fontFamily=Verdana;fontSize=12" parent="1" vertex="1">
          <mxGeometry x="35" y="136" width="160" height="118" as="geometry" />
        </mxCell>
        <mxCell id="78961159f06e98e8-23" value="一覧" style="text;html=1;strokeColor=none;fillColor=none;align=left;verticalAlign=top;spacingLeft=4;spacingRight=4;whiteSpace=wrap;overflow=hidden;rotatable=0;points=[[0,0.5],[1,0.5]];portConstraint=eastwest;" parent="78961159f06e98e8-17" vertex="1">
          <mxGeometry y="26" width="160" height="26" as="geometry" />
        </mxCell>
        <mxCell id="gEi69n2rBhNy_mjRzv1S-35" style="edgeStyle=orthogonalEdgeStyle;rounded=0;orthogonalLoop=1;jettySize=auto;html=1;exitX=0.25;exitY=1;exitDx=0;exitDy=0;entryX=0.25;entryY=0;entryDx=0;entryDy=0;" edge="1" parent="1" source="gEi69n2rBhNy_mjRzv1S-12" target="b94bc138ca980ef-1">
          <mxGeometry relative="1" as="geometry" />
        </mxCell>
        <mxCell id="gEi69n2rBhNy_mjRzv1S-12" value="App" style="swimlane;html=1;fontStyle=1;align=center;verticalAlign=top;childLayout=stackLayout;horizontal=1;startSize=26;horizontalStack=0;resizeParent=1;resizeLast=0;collapsible=1;marginBottom=0;swimlaneFillColor=#ffffff;rounded=0;shadow=0;comic=0;labelBackgroundColor=none;strokeWidth=1;fillColor=none;fontFamily=Verdana;fontSize=12" vertex="1" parent="1">
          <mxGeometry x="360" y="61" width="160" height="120" as="geometry" />
        </mxCell>
        <mxCell id="gEi69n2rBhNy_mjRzv1S-13" value="GlossaryList" style="text;html=1;strokeColor=none;fillColor=none;align=left;verticalAlign=top;spacingLeft=4;spacingRight=4;whiteSpace=wrap;overflow=hidden;rotatable=0;points=[[0,0.5],[1,0.5]];portConstraint=eastwest;" vertex="1" parent="gEi69n2rBhNy_mjRzv1S-12">
          <mxGeometry y="26" width="160" height="26" as="geometry" />
        </mxCell>
        <mxCell id="gEi69n2rBhNy_mjRzv1S-14" value="GlossaryDetail" style="text;html=1;strokeColor=none;fillColor=none;align=left;verticalAlign=top;spacingLeft=4;spacingRight=4;whiteSpace=wrap;overflow=hidden;rotatable=0;points=[[0,0.5],[1,0.5]];portConstraint=eastwest;" vertex="1" parent="gEi69n2rBhNy_mjRzv1S-12">
          <mxGeometry y="52" width="160" height="26" as="geometry" />
        </mxCell>
        <mxCell id="gEi69n2rBhNy_mjRzv1S-18" style="edgeStyle=orthogonalEdgeStyle;rounded=0;orthogonalLoop=1;jettySize=auto;html=1;exitX=-0.006;exitY=-0.154;exitDx=0;exitDy=0;exitPerimeter=0;entryX=1;entryY=0.5;entryDx=0;entryDy=0;" edge="1" parent="1" source="78961159f06e98e8-44" target="gEi69n2rBhNy_mjRzv1S-13">
          <mxGeometry relative="1" as="geometry">
            <mxPoint x="205" y="146" as="sourcePoint" />
            <mxPoint x="370" y="114" as="targetPoint" />
            <Array as="points">
              <mxPoint x="570" y="158" />
              <mxPoint x="570" y="100" />
            </Array>
          </mxGeometry>
        </mxCell>
        <mxCell id="gEi69n2rBhNy_mjRzv1S-19" style="edgeStyle=orthogonalEdgeStyle;rounded=0;orthogonalLoop=1;jettySize=auto;html=1;exitX=0;exitY=0.75;exitDx=0;exitDy=0;entryX=-0.005;entryY=0.336;entryDx=0;entryDy=0;entryPerimeter=0;" edge="1" parent="1" source="gEi69n2rBhNy_mjRzv1S-12" target="b94bc138ca980ef-1">
          <mxGeometry relative="1" as="geometry">
            <mxPoint x="273" y="270" as="targetPoint" />
            <Array as="points">
              <mxPoint x="360" y="150" />
              <mxPoint x="310" y="150" />
              <mxPoint x="310" y="257" />
            </Array>
          </mxGeometry>
        </mxCell>
        <mxCell id="gEi69n2rBhNy_mjRzv1S-20" value="&lt;span style=&quot;color: rgb(0 , 0 , 0) ; font-family: &amp;#34;helvetica&amp;#34; ; font-size: 12px ; font-style: normal ; font-weight: 400 ; letter-spacing: normal ; text-align: left ; text-indent: 0px ; text-transform: none ; word-spacing: 0px ; background-color: rgb(248 , 249 , 250) ; display: inline ; float: none&quot;&gt;DB -&amp;gt; 詳細取得&lt;/span&gt;&lt;br&gt;" style="rounded=0;whiteSpace=wrap;html=1;" vertex="1" parent="1">
          <mxGeometry x="350" y="287" width="120" height="20" as="geometry" />
        </mxCell>
        <mxCell id="gEi69n2rBhNy_mjRzv1S-21" value="&lt;span style=&quot;text-align: left&quot;&gt;詳細取得状態クリア&lt;/span&gt;" style="rounded=0;whiteSpace=wrap;html=1;" vertex="1" parent="1">
          <mxGeometry x="350" y="317" width="120" height="20" as="geometry" />
        </mxCell>
        <mxCell id="gEi69n2rBhNy_mjRzv1S-22" value="一覧を取得" style="text;html=1;align=center;verticalAlign=middle;resizable=0;points=[];autosize=1;" vertex="1" parent="1">
          <mxGeometry x="270" y="100" width="80" height="20" as="geometry" />
        </mxCell>
        <mxCell id="gEi69n2rBhNy_mjRzv1S-26" value="" style="edgeStyle=orthogonalEdgeStyle;rounded=0;orthogonalLoop=1;jettySize=auto;html=1;entryX=1.004;entryY=0.676;entryDx=0;entryDy=0;entryPerimeter=0;" edge="1" parent="1" source="gEi69n2rBhNy_mjRzv1S-13" target="78961159f06e98e8-23">
          <mxGeometry relative="1" as="geometry">
            <mxPoint x="200" y="90" as="targetPoint" />
            <Array as="points">
              <mxPoint x="230" y="90" />
              <mxPoint x="230" y="180" />
            </Array>
          </mxGeometry>
        </mxCell>
        <mxCell id="gEi69n2rBhNy_mjRzv1S-28" value="一覧を渡す" style="text;html=1;align=center;verticalAlign=middle;resizable=0;points=[];autosize=1;" vertex="1" parent="1">
          <mxGeometry x="220" y="70" width="80" height="20" as="geometry" />
        </mxCell>
        <mxCell id="gEi69n2rBhNy_mjRzv1S-31" value="clickイベント、詳細IDを渡す" style="text;html=1;align=center;verticalAlign=middle;resizable=0;points=[];autosize=1;" vertex="1" parent="1">
          <mxGeometry x="175" y="16" width="170" height="20" as="geometry" />
        </mxCell>
        <mxCell id="gEi69n2rBhNy_mjRzv1S-33" value="IDを基に詳細をリクエスト" style="text;html=1;align=center;verticalAlign=middle;resizable=0;points=[];autosize=1;" vertex="1" parent="1">
          <mxGeometry x="392" y="185" width="160" height="20" as="geometry" />
        </mxCell>
        <mxCell id="gEi69n2rBhNy_mjRzv1S-23" value="一覧をリクエスト" style="text;html=1;align=center;verticalAlign=middle;resizable=0;points=[];autosize=1;" vertex="1" parent="1">
          <mxGeometry x="255" y="185" width="110" height="20" as="geometry" />
        </mxCell>
        <mxCell id="gEi69n2rBhNy_mjRzv1S-41" value="vuexのstateが更新されるため、&lt;br&gt;自動で更新されるはず.." style="text;html=1;align=center;verticalAlign=middle;resizable=0;points=[];autosize=1;" vertex="1" parent="1">
          <mxGeometry x="600" y="300" width="190" height="30" as="geometry" />
        </mxCell>
      </root>
    </mxGraphModel>
  </diagram>
</mxfile>
